<svg width="32" height="32" viewBox="0 0 32 32" fill="none" xmlns="http://www.w3.org/2000/svg">
<path fill-rule="evenodd" clip-rule="evenodd" d="M6.98836 6.98836C7.41717 6.55955 8.11241 6.55955 8.54122 6.98836L16.0001 14.4472L23.4589 6.98836C23.8878 6.55955 24.583 6.55955 25.0118 6.98836C25.4406 7.41717 25.4406 8.11241 25.0118 8.54122L17.5529 16.0001L25.0118 23.4589C25.4406 23.8878 25.4406 24.583 25.0118 25.0118C24.583 25.4406 23.8878 25.4406 23.4589 25.0118L16.0001 17.5529L8.54122 25.0118C8.11241 25.4406 7.41717 25.4406 6.98836 25.0118C6.55955 24.583 6.55955 23.8878 6.98836 23.4589L14.4472 16.0001L6.98836 8.54122C6.55955 8.11241 6.55955 7.41717 6.98836 6.98836Z" fill="black" fill-opacity="0.6"/>
</svg>
